<?xml version="1.0" encoding="utf-8"?>
<svg xmlns="http://www.w3.org/2000/svg" xmlns:xlink="http://www.w3.org/1999/xlink" style="margin: auto; background: none; display: block; shape-rendering: auto;" width="51px" height="51px" viewBox="0 0 100 100" preserveAspectRatio="xMidYMid">
<g transform="translate(50 50)">
<g transform="rotate(17.6321)">
<animateTransform attributeName="transform" type="rotate" values="0;45" keyTimes="0;1" dur="0.24449877750611249s" repeatCount="indefinite"></animateTransform><path d="M18.45941494197473 -4.5 L26.45941494197473 -4.5 L26.45941494197473 4.5 L18.45941494197473 4.5 A19 19 0 0 1 16.234757997546076 9.87079696686715 L16.234757997546076 9.87079696686715 L21.891612247038456 15.52765121635953 L15.527651216359533 21.891612247038456 L9.870796966867152 16.234757997546076 A19 19 0 0 1 4.5 18.45941494197473 L4.5 18.45941494197473 L4.500000000000001 26.45941494197473 L-4.4999999999999964 26.45941494197473 L-4.499999999999997 18.45941494197473 A19 19 0 0 1 -9.87079696686715 16.234757997546076 L-9.87079696686715 16.234757997546076 L-15.52765121635953 21.891612247038456 L-21.891612247038456 15.527651216359533 L-16.234757997546076 9.870796966867152 A19 19 0 0 1 -18.45941494197473 4.500000000000001 L-18.45941494197473 4.500000000000001 L-26.45941494197473 4.500000000000002 L-26.45941494197473 -4.499999999999996 L-18.45941494197473 -4.4999999999999964 A19 19 0 0 1 -16.234757997546076 -9.870796966867147 L-16.234757997546076 -9.870796966867147 L-21.89161224703846 -15.527651216359526 L-15.527651216359535 -21.891612247038456 L-9.870796966867154 -16.234757997546076 A19 19 0 0 1 -4.500000000000002 -18.45941494197473 L-4.500000000000002 -18.45941494197473 L-4.5000000000000036 -26.45941494197473 L4.499999999999993 -26.45941494197473 L4.499999999999995 -18.45941494197473 A19 19 0 0 1 9.870796966867147 -16.234757997546076 L9.870796966867147 -16.234757997546076 L15.527651216359526 -21.89161224703846 L21.891612247038452 -15.527651216359535 L16.234757997546073 -9.870796966867154 A19 19 0 0 1 18.45941494197473 -4.500000000000003 M0 -11A11 11 0 1 0 0 11 A11 11 0 1 0 0 -11" fill="#0a0a0a"></path></g></g>
<!-- [ldio] generated by https://loading.io/ --></svg>